STARTFONT 2.1
COMMENT Exported by Fony v1.4.7
FONT 10X17KS
SIZE 17 96 96
FONTBOUNDINGBOX 10 16 0 -3
STARTPROPERTIES 6
COPYRIGHT "Created by kimsoonsung, 2016."
RESOLUTION_X 96
RESOLUTION_Y 96
FONT_ASCENT 14
FONT_DESCENT 3
DEFAULT_CHAR 0
ENDPROPERTIES
CHARS 256
STARTCHAR 000
ENCODING 0
SWIDTH 720 0
DWIDTH 10 0
BBX 0 0 0 0
BITMAP
ENDCHAR
STARTCHAR 001
ENCODING 1
SWIDTH 720 0
DWIDTH 10 0
BBX 0 0 0 0
BITMAP
ENDCHAR
STARTCHAR 002
ENCODING 2
SWIDTH 720 0
DWIDTH 10 0
BBX 10 16 0 -3
BITMAP
FDC0
FDC0
FDC0
0000
EFC0
EFC0
EFC0
0000
FDC0
FDC0
FDC0
0000
EFC0
EFC0
EFC0
EFC0
ENDCHAR
STARTCHAR 003
ENCODING 3
SWIDTH 720 0
DWIDTH 10 0
BBX 0 0 0 0
BITMAP
ENDCHAR
STARTCHAR 004
ENCODING 4
SWIDTH 720 0
DWIDTH 10 0
BBX 0 0 0 0
BITMAP
ENDCHAR
STARTCHAR 005
ENCODING 5
SWIDTH 720 0
DWIDTH 10 0
BBX 0 0 0 0
BITMAP
ENDCHAR
STARTCHAR 006
ENCODING 6
SWIDTH 720 0
DWIDTH 10 0
BBX 0 0 0 0
BITMAP
ENDCHAR
STARTCHAR 007
ENCODING 7
SWIDTH 720 0
DWIDTH 10 0
BBX 0 0 0 0
BITMAP
ENDCHAR
STARTCHAR 008
ENCODING 8
SWIDTH 720 0
DWIDTH 10 0
BBX 0 0 0 0
BITMAP
ENDCHAR
STARTCHAR 009
ENCODING 9
SWIDTH 720 0
DWIDTH 10 0
BBX 0 0 0 0
BITMAP
ENDCHAR
STARTCHAR 010
ENCODING 10
SWIDTH 720 0
DWIDTH 10 0
BBX 0 0 0 0
BITMAP
ENDCHAR
STARTCHAR 011
ENCODING 11
SWIDTH 720 0
DWIDTH 10 0
BBX 0 0 0 0
BITMAP
ENDCHAR
STARTCHAR 012
ENCODING 12
SWIDTH 720 0
DWIDTH 10 0
BBX 0 0 0 0
BITMAP
ENDCHAR
STARTCHAR 013
ENCODING 13
SWIDTH 720 0
DWIDTH 10 0
BBX 0 0 0 0
BITMAP
ENDCHAR
STARTCHAR 014
ENCODING 14
SWIDTH 720 0
DWIDTH 10 0
BBX 0 0 0 0
BITMAP
ENDCHAR
STARTCHAR 015
ENCODING 15
SWIDTH 720 0
DWIDTH 10 0
BBX 0 0 0 0
BITMAP
ENDCHAR
STARTCHAR 016
ENCODING 16
SWIDTH 720 0
DWIDTH 10 0
BBX 0 0 0 0
BITMAP
ENDCHAR
STARTCHAR 017
ENCODING 17
SWIDTH 720 0
DWIDTH 10 0
BBX 0 0 0 0
BITMAP
ENDCHAR
STARTCHAR 018
ENCODING 18
SWIDTH 720 0
DWIDTH 10 0
BBX 0 0 0 0
BITMAP
ENDCHAR
STARTCHAR 019
ENCODING 19
SWIDTH 720 0
DWIDTH 10 0
BBX 0 0 0 0
BITMAP
ENDCHAR
STARTCHAR 020
ENCODING 20
SWIDTH 720 0
DWIDTH 10 0
BBX 0 0 0 0
BITMAP
ENDCHAR
STARTCHAR 021
ENCODING 21
SWIDTH 720 0
DWIDTH 10 0
BBX 0 0 0 0
BITMAP
ENDCHAR
STARTCHAR 022
ENCODING 22
SWIDTH 720 0
DWIDTH 10 0
BBX 0 0 0 0
BITMAP
ENDCHAR
STARTCHAR 023
ENCODING 23
SWIDTH 720 0
DWIDTH 10 0
BBX 0 0 0 0
BITMAP
ENDCHAR
STARTCHAR 024
ENCODING 24
SWIDTH 720 0
DWIDTH 10 0
BBX 0 0 0 0
BITMAP
ENDCHAR
STARTCHAR 025
ENCODING 25
SWIDTH 720 0
DWIDTH 10 0
BBX 0 0 0 0
BITMAP
ENDCHAR
STARTCHAR 026
ENCODING 26
SWIDTH 720 0
DWIDTH 10 0
BBX 0 0 0 0
BITMAP
ENDCHAR
STARTCHAR 027
ENCODING 27
SWIDTH 720 0
DWIDTH 10 0
BBX 0 0 0 0
BITMAP
ENDCHAR
STARTCHAR 028
ENCODING 28
SWIDTH 720 0
DWIDTH 10 0
BBX 0 0 0 0
BITMAP
ENDCHAR
STARTCHAR 029
ENCODING 29
SWIDTH 720 0
DWIDTH 10 0
BBX 0 0 0 0
BITMAP
ENDCHAR
STARTCHAR 030
ENCODING 30
SWIDTH 720 0
DWIDTH 10 0
BBX 0 0 0 0
BITMAP
ENDCHAR
STARTCHAR 031
ENCODING 31
SWIDTH 720 0
DWIDTH 10 0
BBX 0 0 0 0
BITMAP
ENDCHAR
STARTCHAR 032
ENCODING 32
SWIDTH 720 0
DWIDTH 10 0
BBX 0 0 0 0
BITMAP
ENDCHAR
STARTCHAR 033
ENCODING 33
SWIDTH 720 0
DWIDTH 10 0
BBX 4 12 3 0
BITMAP
60
F0
F0
F0
F0
60
60
00
60
F0
F0
60
ENDCHAR
STARTCHAR 034
ENCODING 34
SWIDTH 720 0
DWIDTH 10 0
BBX 9 5 0 7
BITMAP
6300
F780
F780
7380
E700
ENDCHAR
STARTCHAR 035
ENCODING 35
SWIDTH 720 0
DWIDTH 10 0
BBX 8 12 1 0
BITMAP
26
66
66
FF
FF
66
66
FF
FF
66
66
64
ENDCHAR
STARTCHAR 036
ENCODING 36
SWIDTH 720 0
DWIDTH 10 0
BBX 8 16 1 -2
BITMAP
08
0C
3C
7E
DB
D9
F8
7C
3E
1F
9B
DB
7E
3C
30
10
ENDCHAR
STARTCHAR 037
ENCODING 37
SWIDTH 720 0
DWIDTH 10 0
BBX 8 12 1 0
BITMAP
60
F1
B3
F7
6E
1C
38
76
EF
CD
8F
06
ENDCHAR
STARTCHAR 038
ENCODING 38
SWIDTH 720 0
DWIDTH 10 0
BBX 9 13 0 -1
BITMAP
3C00
7600
6200
6200
7600
3C00
3880
7D80
E700
C300
E780
7F80
3C80
ENDCHAR
STARTCHAR 039
ENCODING 39
SWIDTH 720 0
DWIDTH 10 0
BBX 4 5 3 7
BITMAP
60
F0
F0
70
E0
ENDCHAR
STARTCHAR 040
ENCODING 40
SWIDTH 720 0
DWIDTH 10 0
BBX 5 12 2 0
BITMAP
18
30
60
60
C0
C0
C0
C0
60
60
30
18
ENDCHAR
STARTCHAR 041
ENCODING 41
SWIDTH 720 0
DWIDTH 10 0
BBX 5 12 3 0
BITMAP
C0
60
30
30
18
18
18
18
30
30
60
C0
ENDCHAR
STARTCHAR 042
ENCODING 42
SWIDTH 720 0
DWIDTH 10 0
BBX 9 15 0 -2
BITMAP
8080
C180
E380
7700
3E00
1C00
FF80
FF80
FF80
1C00
3E00
7700
E380
C180
8080
ENDCHAR
STARTCHAR 043
ENCODING 43
SWIDTH 720 0
DWIDTH 10 0
BBX 8 11 1 0
BITMAP
18
18
18
18
FF
FF
FF
18
18
18
18
ENDCHAR
STARTCHAR 044
ENCODING 44
SWIDTH 720 0
DWIDTH 10 0
BBX 4 5 3 -1
BITMAP
60
F0
F0
70
E0
ENDCHAR
STARTCHAR 045
ENCODING 45
SWIDTH 720 0
DWIDTH 10 0
BBX 8 3 1 4
BITMAP
FF
FF
FF
ENDCHAR
STARTCHAR 046
ENCODING 46
SWIDTH 720 0
DWIDTH 10 0
BBX 5 5 3 -1
BITMAP
70
F8
E8
D8
70
ENDCHAR
STARTCHAR 047
ENCODING 47
SWIDTH 720 0
DWIDTH 10 0
BBX 8 11 1 0
BITMAP
01
03
07
0F
1E
3C
78
F0
E0
C0
80
ENDCHAR
STARTCHAR 048
ENCODING 48
SWIDTH 720 0
DWIDTH 10 0
BBX 8 12 1 0
BITMAP
7E
FF
C3
C3
CF
DF
FB
F3
C3
C3
FF
7E
ENDCHAR
STARTCHAR 049
ENCODING 49
SWIDTH 720 0
DWIDTH 10 0
BBX 6 12 2 0
BITMAP
10
30
70
F0
30
30
30
30
30
34
FC
FC
ENDCHAR
STARTCHAR 050
ENCODING 50
SWIDTH 720 0
DWIDTH 10 0
BBX 8 12 1 0
BITMAP
7E
FF
C3
C3
C7
0E
1C
38
70
E1
FF
FF
ENDCHAR
STARTCHAR 051
ENCODING 51
SWIDTH 720 0
DWIDTH 10 0
BBX 8 12 1 0
BITMAP
7E
FF
C3
43
03
3E
3F
03
43
C3
FF
7E
ENDCHAR
STARTCHAR 052
ENCODING 52
SWIDTH 720 0
DWIDTH 10 0
BBX 8 12 1 0
BITMAP
02
06
0E
1E
3E
76
E6
FF
FF
06
06
0E
ENDCHAR
STARTCHAR 053
ENCODING 53
SWIDTH 720 0
DWIDTH 10 0
BBX 8 12 1 0
BITMAP
FF
FF
C0
C0
FE
FF
C3
03
43
C3
FF
7E
ENDCHAR
STARTCHAR 054
ENCODING 54
SWIDTH 720 0
DWIDTH 10 0
BBX 8 12 1 0
BITMAP
7E
FF
C3
C1
C0
FE
FF
C3
C3
C3
FF
7E
ENDCHAR
STARTCHAR 055
ENCODING 55
SWIDTH 720 0
DWIDTH 10 0
BBX 8 12 1 0
BITMAP
FF
FF
C3
E3
06
06
0C
0C
18
18
30
30
ENDCHAR
STARTCHAR 056
ENCODING 56
SWIDTH 720 0
DWIDTH 10 0
BBX 8 12 1 0
BITMAP
7E
FF
C3
C3
C3
7E
7E
C3
C3
C3
FF
7E
ENDCHAR
STARTCHAR 057
ENCODING 57
SWIDTH 720 0
DWIDTH 10 0
BBX 8 12 1 0
BITMAP
7E
FF
C3
C3
C3
FF
7F
03
43
C3
FF
7E
ENDCHAR
STARTCHAR 058
ENCODING 58
SWIDTH 720 0
DWIDTH 10 0
BBX 4 11 3 0
BITMAP
60
F0
F0
60
00
00
00
60
F0
F0
60
ENDCHAR
STARTCHAR 059
ENCODING 59
SWIDTH 720 0
DWIDTH 10 0
BBX 4 12 3 -1
BITMAP
60
F0
F0
60
00
00
00
60
F0
F0
70
E0
ENDCHAR
STARTCHAR 060
ENCODING 60
SWIDTH 720 0
DWIDTH 10 0
BBX 8 12 1 0
BITMAP
07
0E
1C
38
70
E0
E0
70
38
1C
0E
07
ENDCHAR
STARTCHAR 061
ENCODING 61
SWIDTH 720 0
DWIDTH 10 0
BBX 8 8 1 2
BITMAP
FF
FF
FF
00
00
FF
FF
FF
ENDCHAR
STARTCHAR 062
ENCODING 62
SWIDTH 720 0
DWIDTH 10 0
BBX 8 12 1 0
BITMAP
E0
70
38
1C
0E
07
07
0E
1C
38
70
E0
ENDCHAR
STARTCHAR 063
ENCODING 63
SWIDTH 720 0
DWIDTH 10 0
BBX 8 12 1 0
BITMAP
7E
FF
C3
C3
47
0E
1C
18
18
00
18
18
ENDCHAR
STARTCHAR 064
ENCODING 64
SWIDTH 720 0
DWIDTH 10 0
BBX 8 15 1 -2
BITMAP
24
6D
FF
C3
81
A5
A5
81
FF
FF
E7
7E
3C
7E
FF
ENDCHAR
STARTCHAR 065
ENCODING 65
SWIDTH 720 0
DWIDTH 10 0
BBX 8 12 1 0
BITMAP
18
3C
7E
E7
C3
C3
FF
FF
C3
C3
C3
E7
ENDCHAR
STARTCHAR 066
ENCODING 66
SWIDTH 720 0
DWIDTH 10 0
BBX 8 12 1 0
BITMAP
FE
FF
C3
C3
C3
FE
FE
C3
C3
C3
FF
FE
ENDCHAR
STARTCHAR 067
ENCODING 67
SWIDTH 720 0
DWIDTH 10 0
BBX 8 12 1 0
BITMAP
3E
7F
E3
C2
C0
C0
C0
C0
C2
E3
7F
3E
ENDCHAR
STARTCHAR 068
ENCODING 68
SWIDTH 720 0
DWIDTH 10 0
BBX 8 12 1 0
BITMAP
FC
FE
C7
C3
C3
C3
C3
C3
C3
C7
FE
FC
ENDCHAR
STARTCHAR 069
ENCODING 69
SWIDTH 720 0
DWIDTH 10 0
BBX 8 12 1 0
BITMAP
FF
FF
C1
C0
C0
FC
FC
C0
C0
C1
FF
FF
ENDCHAR
STARTCHAR 070
ENCODING 70
SWIDTH 720 0
DWIDTH 10 0
BBX 8 12 1 0
BITMAP
FF
FF
C1
C0
C0
FC
FC
C0
C0
C0
C0
E0
ENDCHAR
STARTCHAR 071
ENCODING 71
SWIDTH 720 0
DWIDTH 10 0
BBX 9 12 0 0
BITMAP
3F00
7F80
E180
C080
C000
CF80
CF80
C980
C180
E180
7F80
3F00
ENDCHAR
STARTCHAR 072
ENCODING 72
SWIDTH 720 0
DWIDTH 10 0
BBX 8 12 1 0
BITMAP
E7
C3
C3
C3
C3
FF
FF
C3
C3
C3
C3
E7
ENDCHAR
STARTCHAR 073
ENCODING 73
SWIDTH 720 0
DWIDTH 10 0
BBX 6 12 2 0
BITMAP
FC
FC
30
30
30
30
30
30
30
30
FC
FC
ENDCHAR
STARTCHAR 074
ENCODING 74
SWIDTH 720 0
DWIDTH 10 0
BBX 9 12 0 0
BITMAP
3F80
3F80
0600
0600
0600
0600
4600
C600
C600
C600
FE00
7C00
ENDCHAR
STARTCHAR 075
ENCODING 75
SWIDTH 720 0
DWIDTH 10 0
BBX 9 12 0 0
BITMAP
C380
C700
CE00
DC00
F800
F000
F000
F800
DC00
CE00
C700
C380
ENDCHAR
STARTCHAR 076
ENCODING 76
SWIDTH 720 0
DWIDTH 10 0
BBX 8 12 1 0
BITMAP
C0
C0
C0
C0
C0
C0
C0
C0
C0
C1
FF
FF
ENDCHAR
STARTCHAR 077
ENCODING 77
SWIDTH 720 0
DWIDTH 10 0
BBX 8 12 1 0
BITMAP
C3
E7
FF
FF
FF
DB
DB
DB
DB
DB
C3
81
ENDCHAR
STARTCHAR 078
ENCODING 78
SWIDTH 720 0
DWIDTH 10 0
BBX 8 12 1 0
BITMAP
C7
C3
E3
F3
F3
DB
DB
CF
CF
C7
C3
E3
ENDCHAR
STARTCHAR 079
ENCODING 79
SWIDTH 720 0
DWIDTH 10 0
BBX 8 12 1 0
BITMAP
3C
7E
E7
C3
C3
C3
C3
C3
C3
E7
7E
3C
ENDCHAR
STARTCHAR 080
ENCODING 80
SWIDTH 720 0
DWIDTH 10 0
BBX 8 12 1 0
BITMAP
FE
FF
C3
C3
C3
FF
FE
C0
C0
C0
C0
E0
ENDCHAR
STARTCHAR 081
ENCODING 81
SWIDTH 720 0
DWIDTH 10 0
BBX 8 13 1 -1
BITMAP
3C
7E
E7
C3
C3
C3
DB
DB
DF
EF
7E
3F
03
ENDCHAR
STARTCHAR 082
ENCODING 82
SWIDTH 720 0
DWIDTH 10 0
BBX 9 12 1 0
BITMAP
FE00
FF00
C300
C300
C300
FF00
FE00
F800
DC00
CE00
C700
E380
ENDCHAR
STARTCHAR 083
ENCODING 83
SWIDTH 720 0
DWIDTH 10 0
BBX 8 12 1 0
BITMAP
7E
FF
C3
C1
C0
FE
7F
03
83
C3
FF
7E
ENDCHAR
STARTCHAR 084
ENCODING 84
SWIDTH 720 0
DWIDTH 10 0
BBX 8 12 1 0
BITMAP
FF
FF
18
18
18
18
18
18
18
18
18
1C
ENDCHAR
STARTCHAR 085
ENCODING 85
SWIDTH 720 0
DWIDTH 10 0
BBX 8 12 1 0
BITMAP
81
C3
C3
C3
C3
C3
C3
C3
C3
E7
FF
7E
ENDCHAR
STARTCHAR 086
ENCODING 86
SWIDTH 720 0
DWIDTH 10 0
BBX 8 12 1 0
BITMAP
E7
C3
C3
C3
66
66
66
3C
3C
3C
18
18
ENDCHAR
STARTCHAR 087
ENCODING 87
SWIDTH 720 0
DWIDTH 10 0
BBX 8 12 1 0
BITMAP
81
C3
DB
DB
DB
DB
DB
DB
FF
FF
E7
C3
ENDCHAR
STARTCHAR 088
ENCODING 88
SWIDTH 720 0
DWIDTH 10 0
BBX 8 12 1 0
BITMAP
81
C3
E7
7E
7E
3C
3C
7E
7E
E7
C3
81
ENDCHAR
STARTCHAR 089
ENCODING 89
SWIDTH 720 0
DWIDTH 10 0
BBX 8 12 1 0
BITMAP
E7
C3
C3
E7
7E
3C
18
18
18
18
18
18
ENDCHAR
STARTCHAR 090
ENCODING 90
SWIDTH 720 0
DWIDTH 10 0
BBX 8 12 1 0
BITMAP
FF
FF
C7
87
0E
1C
38
70
E1
E3
FF
FF
ENDCHAR
STARTCHAR 091
ENCODING 91
SWIDTH 720 0
DWIDTH 10 0
BBX 6 12 2 0
BITMAP
F8
FC
C0
C0
C0
C0
C0
C0
C0
C0
FC
F8
ENDCHAR
STARTCHAR 092
ENCODING 92
SWIDTH 720 0
DWIDTH 10 0
BBX 8 11 1 0
BITMAP
80
C0
E0
F0
78
3C
1E
0F
07
03
01
ENDCHAR
STARTCHAR 093
ENCODING 93
SWIDTH 720 0
DWIDTH 10 0
BBX 6 12 2 0
BITMAP
7C
FC
0C
0C
0C
0C
0C
0C
0C
0C
FC
7C
ENDCHAR
STARTCHAR 094
ENCODING 94
SWIDTH 720 0
DWIDTH 10 0
BBX 8 13 1 -1
BITMAP
18
3C
7E
FF
E7
C3
99
3C
7E
FF
E7
C3
81
ENDCHAR
STARTCHAR 095
ENCODING 95
SWIDTH 720 0
DWIDTH 10 0
BBX 10 3 0 -2
BITMAP
FFC0
FFC0
FFC0
ENDCHAR
STARTCHAR 096
ENCODING 96
SWIDTH 720 0
DWIDTH 10 0
BBX 4 5 2 7
BITMAP
60
F0
F0
E0
70
ENDCHAR
STARTCHAR 097
ENCODING 97
SWIDTH 720 0
DWIDTH 10 0
BBX 9 8 1 0
BITMAP
3E00
7F00
0300
7F00
FF00
C300
FF00
7B80
ENDCHAR
STARTCHAR 098
ENCODING 98
SWIDTH 720 0
DWIDTH 10 0
BBX 9 12 0 0
BITMAP
E000
6000
6000
6000
6F00
7F80
6180
6180
6180
7180
7F80
6F00
ENDCHAR
STARTCHAR 099
ENCODING 99
SWIDTH 720 0
DWIDTH 10 0
BBX 8 8 1 0
BITMAP
7E
FF
C1
C0
C0
C1
FF
7E
ENDCHAR
STARTCHAR 100
ENCODING 100
SWIDTH 720 0
DWIDTH 10 0
BBX 9 12 1 0
BITMAP
0380
0300
0300
0300
7B00
FF00
C300
C300
C300
C700
FF00
7B00
ENDCHAR
STARTCHAR 101
ENCODING 101
SWIDTH 720 0
DWIDTH 10 0
BBX 8 8 1 0
BITMAP
7E
FF
C3
FF
FE
C0
FF
7E
ENDCHAR
STARTCHAR 102
ENCODING 102
SWIDTH 720 0
DWIDTH 10 0
BBX 8 12 1 0
BITMAP
1E
3F
33
31
30
30
FC
FC
34
30
30
30
ENDCHAR
STARTCHAR 103
ENCODING 103
SWIDTH 720 0
DWIDTH 10 0
BBX 9 11 1 -3
BITMAP
7B80
FF00
C300
C300
C700
FF00
7B00
0300
8300
FF00
7E00
ENDCHAR
STARTCHAR 104
ENCODING 104
SWIDTH 720 0
DWIDTH 10 0
BBX 9 12 0 0
BITMAP
E000
6000
6000
6000
6F00
7F80
7180
6180
6180
6180
6180
6180
ENDCHAR
STARTCHAR 105
ENCODING 105
SWIDTH 720 0
DWIDTH 10 0
BBX 6 11 2 0
BITMAP
30
30
00
70
70
B0
30
30
30
FC
FC
ENDCHAR
STARTCHAR 106
ENCODING 106
SWIDTH 720 0
DWIDTH 10 0
BBX 7 14 1 -3
BITMAP
06
06
00
1E
1E
16
06
06
06
46
C6
C6
FE
7C
ENDCHAR
STARTCHAR 107
ENCODING 107
SWIDTH 720 0
DWIDTH 10 0
BBX 9 12 0 0
BITMAP
E000
6000
6000
6100
6300
6700
6E00
7C00
7C00
6E00
6700
7380
ENDCHAR
STARTCHAR 108
ENCODING 108
SWIDTH 720 0
DWIDTH 10 0
BBX 6 12 2 0
BITMAP
70
70
30
30
30
30
30
30
30
34
FC
FC
ENDCHAR
STARTCHAR 109
ENCODING 109
SWIDTH 720 0
DWIDTH 10 0
BBX 9 8 0 0
BITMAP
DB00
7F80
7F80
6D80
6D80
6D80
6D80
6D80
ENDCHAR
STARTCHAR 110
ENCODING 110
SWIDTH 720 0
DWIDTH 10 0
BBX 9 8 0 0
BITMAP
EF00
7F80
7180
6180
6180
6180
6180
6180
ENDCHAR
STARTCHAR 111
ENCODING 111
SWIDTH 720 0
DWIDTH 10 0
BBX 8 8 1 0
BITMAP
7E
FF
C3
C3
C3
C3
FF
7E
ENDCHAR
STARTCHAR 112
ENCODING 112
SWIDTH 720 0
DWIDTH 10 0
BBX 9 11 0 -3
BITMAP
EF00
7F80
6180
6180
6180
7180
7F80
6F00
6000
6000
6000
ENDCHAR
STARTCHAR 113
ENCODING 113
SWIDTH 720 0
DWIDTH 10 0
BBX 9 11 1 -3
BITMAP
7B00
FF00
C300
C300
C300
C700
FF00
7B00
0300
0300
0380
ENDCHAR
STARTCHAR 114
ENCODING 114
SWIDTH 720 0
DWIDTH 10 0
BBX 9 8 0 0
BITMAP
EF00
7F80
7180
6080
6000
6000
6000
6000
ENDCHAR
STARTCHAR 115
ENCODING 115
SWIDTH 720 0
DWIDTH 10 0
BBX 9 8 0 0
BITMAP
3F00
7F80
6000
7F00
3F80
8180
7F80
3F00
ENDCHAR
STARTCHAR 116
ENCODING 116
SWIDTH 720 0
DWIDTH 10 0
BBX 7 11 2 0
BITMAP
70
30
30
FC
FC
30
30
30
32
3E
1C
ENDCHAR
STARTCHAR 117
ENCODING 117
SWIDTH 720 0
DWIDTH 10 0
BBX 10 8 0 0
BITMAP
E180
6180
6180
6180
6180
6180
7F80
3EC0
ENDCHAR
STARTCHAR 118
ENCODING 118
SWIDTH 720 0
DWIDTH 10 0
BBX 9 8 0 0
BITMAP
E180
6180
6180
3300
3300
1E00
1E00
0C00
ENDCHAR
STARTCHAR 119
ENCODING 119
SWIDTH 720 0
DWIDTH 10 0
BBX 9 8 0 0
BITMAP
ED80
6D80
6D80
6D80
6D80
7F80
7F80
3300
ENDCHAR
STARTCHAR 120
ENCODING 120
SWIDTH 720 0
DWIDTH 10 0
BBX 9 8 0 0
BITMAP
E180
7380
3F00
1E00
1E00
3F00
7380
6180
ENDCHAR
STARTCHAR 121
ENCODING 121
SWIDTH 720 0
DWIDTH 10 0
BBX 9 11 0 -3
BITMAP
E180
6180
6180
6180
6380
7F80
3D80
0180
4180
3F80
1F00
ENDCHAR
STARTCHAR 122
ENCODING 122
SWIDTH 720 0
DWIDTH 10 0
BBX 8 8 1 0
BITMAP
FF
FF
8E
1C
38
71
FF
FF
ENDCHAR
STARTCHAR 123
ENCODING 123
SWIDTH 720 0
DWIDTH 10 0
BBX 6 12 2 0
BITMAP
3C
78
60
60
60
C0
C0
60
60
60
78
3C
ENDCHAR
STARTCHAR 124
ENCODING 124
SWIDTH 720 0
DWIDTH 10 0
BBX 3 14 4 -1
BITMAP
60
E0
E0
E0
E0
E0
E0
E0
E0
E0
E0
E0
E0
C0
ENDCHAR
STARTCHAR 125
ENCODING 125
SWIDTH 720 0
DWIDTH 10 0
BBX 6 12 2 0
BITMAP
F0
78
18
18
18
0C
0C
18
18
18
78
F0
ENDCHAR
STARTCHAR 126
ENCODING 126
SWIDTH 720 0
DWIDTH 10 0
BBX 8 6 1 3
BITMAP
70
F8
F9
9F
1F
0E
ENDCHAR
STARTCHAR 127
ENCODING 127
SWIDTH 720 0
DWIDTH 10 0
BBX 10 16 0 -3
BITMAP
FDC0
FDC0
FDC0
0000
EFC0
EFC0
EFC0
0000
FDC0
FDC0
FDC0
0000
EFC0
EFC0
EFC0
EFC0
ENDCHAR
STARTCHAR 128
ENCODING 128
SWIDTH 720 0
DWIDTH 10 0
BBX 10 16 0 -3
BITMAP
FDC0
FDC0
FDC0
0000
EFC0
EFC0
EFC0
0000
FDC0
FDC0
FDC0
0000
EFC0
EFC0
EFC0
EFC0
ENDCHAR
STARTCHAR 129
ENCODING 129
SWIDTH 720 0
DWIDTH 10 0
BBX 0 0 0 0
BITMAP
ENDCHAR
STARTCHAR 130
ENCODING 130
SWIDTH 720 0
DWIDTH 10 0
BBX 0 0 0 0
BITMAP
ENDCHAR
STARTCHAR 131
ENCODING 131
SWIDTH 720 0
DWIDTH 10 0
BBX 0 0 0 0
BITMAP
ENDCHAR
STARTCHAR 132
ENCODING 132
SWIDTH 720 0
DWIDTH 10 0
BBX 0 0 0 0
BITMAP
ENDCHAR
STARTCHAR 133
ENCODING 133
SWIDTH 720 0
DWIDTH 10 0
BBX 0 0 0 0
BITMAP
ENDCHAR
STARTCHAR 134
ENCODING 134
SWIDTH 720 0
DWIDTH 10 0
BBX 0 0 0 0
BITMAP
ENDCHAR
STARTCHAR 135
ENCODING 135
SWIDTH 720 0
DWIDTH 10 0
BBX 0 0 0 0
BITMAP
ENDCHAR
STARTCHAR 136
ENCODING 136
SWIDTH 720 0
DWIDTH 10 0
BBX 0 0 0 0
BITMAP
ENDCHAR
STARTCHAR 137
ENCODING 137
SWIDTH 720 0
DWIDTH 10 0
BBX 0 0 0 0
BITMAP
ENDCHAR
STARTCHAR 138
ENCODING 138
SWIDTH 720 0
DWIDTH 10 0
BBX 0 0 0 0
BITMAP
ENDCHAR
STARTCHAR 139
ENCODING 139
SWIDTH 720 0
DWIDTH 10 0
BBX 0 0 0 0
BITMAP
ENDCHAR
STARTCHAR 140
ENCODING 140
SWIDTH 720 0
DWIDTH 10 0
BBX 0 0 0 0
BITMAP
ENDCHAR
STARTCHAR 141
ENCODING 141
SWIDTH 720 0
DWIDTH 10 0
BBX 0 0 0 0
BITMAP
ENDCHAR
STARTCHAR 142
ENCODING 142
SWIDTH 720 0
DWIDTH 10 0
BBX 0 0 0 0
BITMAP
ENDCHAR
STARTCHAR 143
ENCODING 143
SWIDTH 720 0
DWIDTH 10 0
BBX 0 0 0 0
BITMAP
ENDCHAR
STARTCHAR 144
ENCODING 144
SWIDTH 720 0
DWIDTH 10 0
BBX 0 0 0 0
BITMAP
ENDCHAR
STARTCHAR 145
ENCODING 145
SWIDTH 720 0
DWIDTH 10 0
BBX 0 0 0 0
BITMAP
ENDCHAR
STARTCHAR 146
ENCODING 146
SWIDTH 720 0
DWIDTH 10 0
BBX 0 0 0 0
BITMAP
ENDCHAR
STARTCHAR 147
ENCODING 147
SWIDTH 720 0
DWIDTH 10 0
BBX 0 0 0 0
BITMAP
ENDCHAR
STARTCHAR 148
ENCODING 148
SWIDTH 720 0
DWIDTH 10 0
BBX 0 0 0 0
BITMAP
ENDCHAR
STARTCHAR 149
ENCODING 149
SWIDTH 720 0
DWIDTH 10 0
BBX 0 0 0 0
BITMAP
ENDCHAR
STARTCHAR 150
ENCODING 150
SWIDTH 720 0
DWIDTH 10 0
BBX 0 0 0 0
BITMAP
ENDCHAR
STARTCHAR 151
ENCODING 151
SWIDTH 720 0
DWIDTH 10 0
BBX 0 0 0 0
BITMAP
ENDCHAR
STARTCHAR 152
ENCODING 152
SWIDTH 720 0
DWIDTH 10 0
BBX 0 0 0 0
BITMAP
ENDCHAR
STARTCHAR 153
ENCODING 153
SWIDTH 720 0
DWIDTH 10 0
BBX 0 0 0 0
BITMAP
ENDCHAR
STARTCHAR 154
ENCODING 154
SWIDTH 720 0
DWIDTH 10 0
BBX 0 0 0 0
BITMAP
ENDCHAR
STARTCHAR 155
ENCODING 155
SWIDTH 720 0
DWIDTH 10 0
BBX 0 0 0 0
BITMAP
ENDCHAR
STARTCHAR 156
ENCODING 156
SWIDTH 720 0
DWIDTH 10 0
BBX 0 0 0 0
BITMAP
ENDCHAR
STARTCHAR 157
ENCODING 157
SWIDTH 720 0
DWIDTH 10 0
BBX 0 0 0 0
BITMAP
ENDCHAR
STARTCHAR 158
ENCODING 158
SWIDTH 720 0
DWIDTH 10 0
BBX 0 0 0 0
BITMAP
ENDCHAR
STARTCHAR 159
ENCODING 159
SWIDTH 720 0
DWIDTH 10 0
BBX 0 0 0 0
BITMAP
ENDCHAR
STARTCHAR 160
ENCODING 160
SWIDTH 720 0
DWIDTH 10 0
BBX 0 0 0 0
BITMAP
ENDCHAR
STARTCHAR 161
ENCODING 161
SWIDTH 720 0
DWIDTH 10 0
BBX 0 0 0 0
BITMAP
ENDCHAR
STARTCHAR 162
ENCODING 162
SWIDTH 720 0
DWIDTH 10 0
BBX 0 0 0 0
BITMAP
ENDCHAR
STARTCHAR 163
ENCODING 163
SWIDTH 720 0
DWIDTH 10 0
BBX 0 0 0 0
BITMAP
ENDCHAR
STARTCHAR 164
ENCODING 164
SWIDTH 720 0
DWIDTH 10 0
BBX 0 0 0 0
BITMAP
ENDCHAR
STARTCHAR 165
ENCODING 165
SWIDTH 720 0
DWIDTH 10 0
BBX 0 0 0 0
BITMAP
ENDCHAR
STARTCHAR 166
ENCODING 166
SWIDTH 720 0
DWIDTH 10 0
BBX 0 0 0 0
BITMAP
ENDCHAR
STARTCHAR 167
ENCODING 167
SWIDTH 720 0
DWIDTH 10 0
BBX 0 0 0 0
BITMAP
ENDCHAR
STARTCHAR 168
ENCODING 168
SWIDTH 720 0
DWIDTH 10 0
BBX 0 0 0 0
BITMAP
ENDCHAR
STARTCHAR 169
ENCODING 169
SWIDTH 720 0
DWIDTH 10 0
BBX 0 0 0 0
BITMAP
ENDCHAR
STARTCHAR 170
ENCODING 170
SWIDTH 720 0
DWIDTH 10 0
BBX 0 0 0 0
BITMAP
ENDCHAR
STARTCHAR 171
ENCODING 171
SWIDTH 720 0
DWIDTH 10 0
BBX 0 0 0 0
BITMAP
ENDCHAR
STARTCHAR 172
ENCODING 172
SWIDTH 720 0
DWIDTH 10 0
BBX 0 0 0 0
BITMAP
ENDCHAR
STARTCHAR 173
ENCODING 173
SWIDTH 720 0
DWIDTH 10 0
BBX 0 0 0 0
BITMAP
ENDCHAR
STARTCHAR 174
ENCODING 174
SWIDTH 720 0
DWIDTH 10 0
BBX 0 0 0 0
BITMAP
ENDCHAR
STARTCHAR 175
ENCODING 175
SWIDTH 720 0
DWIDTH 10 0
BBX 0 0 0 0
BITMAP
ENDCHAR
STARTCHAR 176
ENCODING 176
SWIDTH 720 0
DWIDTH 10 0
BBX 0 0 0 0
BITMAP
ENDCHAR
STARTCHAR 177
ENCODING 177
SWIDTH 720 0
DWIDTH 10 0
BBX 0 0 0 0
BITMAP
ENDCHAR
STARTCHAR 178
ENCODING 178
SWIDTH 720 0
DWIDTH 10 0
BBX 0 0 0 0
BITMAP
ENDCHAR
STARTCHAR 179
ENCODING 179
SWIDTH 720 0
DWIDTH 10 0
BBX 0 0 0 0
BITMAP
ENDCHAR
STARTCHAR 180
ENCODING 180
SWIDTH 720 0
DWIDTH 10 0
BBX 0 0 0 0
BITMAP
ENDCHAR
STARTCHAR 181
ENCODING 181
SWIDTH 720 0
DWIDTH 10 0
BBX 0 0 0 0
BITMAP
ENDCHAR
STARTCHAR 182
ENCODING 182
SWIDTH 720 0
DWIDTH 10 0
BBX 0 0 0 0
BITMAP
ENDCHAR
STARTCHAR 183
ENCODING 183
SWIDTH 720 0
DWIDTH 10 0
BBX 0 0 0 0
BITMAP
ENDCHAR
STARTCHAR 184
ENCODING 184
SWIDTH 720 0
DWIDTH 10 0
BBX 0 0 0 0
BITMAP
ENDCHAR
STARTCHAR 185
ENCODING 185
SWIDTH 720 0
DWIDTH 10 0
BBX 0 0 0 0
BITMAP
ENDCHAR
STARTCHAR 186
ENCODING 186
SWIDTH 720 0
DWIDTH 10 0
BBX 0 0 0 0
BITMAP
ENDCHAR
STARTCHAR 187
ENCODING 187
SWIDTH 720 0
DWIDTH 10 0
BBX 0 0 0 0
BITMAP
ENDCHAR
STARTCHAR 188
ENCODING 188
SWIDTH 720 0
DWIDTH 10 0
BBX 0 0 0 0
BITMAP
ENDCHAR
STARTCHAR 189
ENCODING 189
SWIDTH 720 0
DWIDTH 10 0
BBX 0 0 0 0
BITMAP
ENDCHAR
STARTCHAR 190
ENCODING 190
SWIDTH 720 0
DWIDTH 10 0
BBX 0 0 0 0
BITMAP
ENDCHAR
STARTCHAR 191
ENCODING 191
SWIDTH 720 0
DWIDTH 10 0
BBX 0 0 0 0
BITMAP
ENDCHAR
STARTCHAR 192
ENCODING 192
SWIDTH 720 0
DWIDTH 10 0
BBX 0 0 0 0
BITMAP
ENDCHAR
STARTCHAR 193
ENCODING 193
SWIDTH 720 0
DWIDTH 10 0
BBX 0 0 0 0
BITMAP
ENDCHAR
STARTCHAR 194
ENCODING 194
SWIDTH 720 0
DWIDTH 10 0
BBX 0 0 0 0
BITMAP
ENDCHAR
STARTCHAR 195
ENCODING 195
SWIDTH 720 0
DWIDTH 10 0
BBX 0 0 0 0
BITMAP
ENDCHAR
STARTCHAR 196
ENCODING 196
SWIDTH 720 0
DWIDTH 10 0
BBX 0 0 0 0
BITMAP
ENDCHAR
STARTCHAR 197
ENCODING 197
SWIDTH 720 0
DWIDTH 10 0
BBX 0 0 0 0
BITMAP
ENDCHAR
STARTCHAR 198
ENCODING 198
SWIDTH 720 0
DWIDTH 10 0
BBX 0 0 0 0
BITMAP
ENDCHAR
STARTCHAR 199
ENCODING 199
SWIDTH 720 0
DWIDTH 10 0
BBX 0 0 0 0
BITMAP
ENDCHAR
STARTCHAR 200
ENCODING 200
SWIDTH 720 0
DWIDTH 10 0
BBX 0 0 0 0
BITMAP
ENDCHAR
STARTCHAR 201
ENCODING 201
SWIDTH 720 0
DWIDTH 10 0
BBX 8 13 1 -2
BITMAP
50
A8
50
A8
50
00
00
00
0A
15
0A
15
0A
ENDCHAR
STARTCHAR 202
ENCODING 202
SWIDTH 720 0
DWIDTH 10 0
BBX 8 13 1 -2
BITMAP
50
B8
78
F8
70
00
00
00
0A
17
0F
1F
0E
ENDCHAR
STARTCHAR 203
ENCODING 203
SWIDTH 720 0
DWIDTH 10 0
BBX 8 13 1 -2
BITMAP
70
98
F8
F8
70
00
00
00
0E
19
1F
1F
0E
ENDCHAR
STARTCHAR 204
ENCODING 204
SWIDTH 720 0
DWIDTH 10 0
BBX 10 15 0 -2
BITMAP
1200
5400
2800
AA00
5400
5480
2800
0000
1200
0A80
0500
1540
0A80
4A80
0500
ENDCHAR
STARTCHAR 205
ENCODING 205
SWIDTH 720 0
DWIDTH 10 0
BBX 10 15 0 -2
BITMAP
2800
3900
3A00
9200
5400
5480
2800
0000
0500
2700
1700
1240
0A80
4A80
0500
ENDCHAR
STARTCHAR 206
ENCODING 206
SWIDTH 720 0
DWIDTH 10 0
BBX 8 13 1 -2
BITMAP
A8
50
F8
50
A8
00
00
00
0A
15
0E
15
0A
ENDCHAR
STARTCHAR 207
ENCODING 207
SWIDTH 720 0
DWIDTH 10 0
BBX 10 12 0 -1
BITMAP
5200
AE00
7E00
9C00
0000
0000
0000
0000
0A40
15C0
0FC0
1380
ENDCHAR
STARTCHAR 208
ENCODING 208
SWIDTH 720 0
DWIDTH 10 0
BBX 9 16 0 -3
BITMAP
7F00
FF80
AA80
5500
AA80
5500
0000
0000
0000
0000
5500
AA80
5500
AA80
FF80
7F00
ENDCHAR
STARTCHAR 209
ENCODING 209
SWIDTH 720 0
DWIDTH 10 0
BBX 10 16 0 -3
BITMAP
FDC0
FD40
FDC0
0000
EFC0
AFC0
EFC0
0000
FDC0
FD40
FDC0
0000
EFC0
AFC0
EFC0
EFC0
ENDCHAR
STARTCHAR 210
ENCODING 210
SWIDTH 720 0
DWIDTH 10 0
BBX 10 16 0 -3
BITMAP
FDC0
F740
FDC0
0000
EFC0
BBC0
EFC0
0000
FDC0
F740
FDC0
0000
EFC0
BBC0
EFC0
EFC0
ENDCHAR
STARTCHAR 211
ENCODING 211
SWIDTH 720 0
DWIDTH 10 0
BBX 10 16 0 -3
BITMAP
DDC0
A2C0
4140
6300
7F40
3E40
5D40
6300
7F40
BEC0
DDC0
0000
EFC0
EFC0
EFC0
EFC0
ENDCHAR
STARTCHAR 212
ENCODING 212
SWIDTH 720 0
DWIDTH 10 0
BBX 10 16 0 -3
BITMAP
1800
3C00
7600
7A00
FF00
F900
B680
EF00
DB80
5780
37C0
3FC0
7F40
7FC0
7FC0
2A80
ENDCHAR
STARTCHAR 213
ENCODING 213
SWIDTH 720 0
DWIDTH 10 0
BBX 8 16 1 -3
BITMAP
24
5A
75
FE
5F
FA
FF
7B
FE
5F
F6
BD
5A
18
18
18
ENDCHAR
STARTCHAR 214
ENCODING 214
SWIDTH 720 0
DWIDTH 10 0
BBX 9 15 1 -3
BITMAP
0800
8280
2100
0000
5400
BA00
6C00
7D00
FA00
5F00
F600
BD00
5A00
1800
1800
ENDCHAR
STARTCHAR 215
ENCODING 215
SWIDTH 720 0
DWIDTH 10 0
BBX 8 16 1 -3
BITMAP
05
02
20
A8
52
3C
D3
1C
F2
59
94
3B
D2
18
18
18
ENDCHAR
STARTCHAR 216
ENCODING 216
SWIDTH 720 0
DWIDTH 10 0
BBX 10 17 0 -3
BITMAP
4880
9300
5480
2840
AB00
5480
5480
2940
C400
3240
4A80
8500
3540
4A80
4A80
2500
1000
ENDCHAR
STARTCHAR 217
ENCODING 217
SWIDTH 720 0
DWIDTH 10 0
BBX 10 17 0 -3
BITMAP
8840
5080
5140
2A00
2440
1480
9F00
4EC0
7D00
9E00
6C40
2A80
4940
9500
2280
2280
4440
ENDCHAR
STARTCHAR 218
ENCODING 218
SWIDTH 720 0
DWIDTH 10 0
BBX 10 16 0 -3
BITMAP
FFC0
BF40
F3C0
F3C0
F3C0
F3C0
8040
8040
8040
F3C0
F3C0
F3C0
F3C0
FFC0
BF40
FFC0
ENDCHAR
STARTCHAR 219
ENCODING 219
SWIDTH 720 0
DWIDTH 10 0
BBX 4 16 1 -3
BITMAP
E0
A0
E0
E0
E0
E0
E0
F0
F0
E0
E0
E0
E0
E0
A0
E0
ENDCHAR
STARTCHAR 220
ENCODING 220
SWIDTH 720 0
DWIDTH 10 0
BBX 10 16 0 -3
BITMAP
FFC0
BF40
D2C0
C0C0
C0C0
8040
8040
8040
8C40
8040
9E40
8040
BF40
8040
BF40
8040
ENDCHAR
STARTCHAR 221
ENCODING 221
SWIDTH 720 0
DWIDTH 10 0
BBX 10 16 0 -3
BITMAP
FFC0
BF40
D2C0
C0C0
C0C0
8040
8040
8040
BF40
8040
BF40
8040
9E40
8040
8C40
8040
ENDCHAR
STARTCHAR 222
ENCODING 222
SWIDTH 720 0
DWIDTH 10 0
BBX 10 16 0 -3
BITMAP
FFC0
BF40
D2C0
C0C0
CCC0
9240
8040
A140
0000
A140
0000
A140
8040
9240
8C40
8040
ENDCHAR
STARTCHAR 223
ENCODING 223
SWIDTH 720 0
DWIDTH 10 0
BBX 9 11 0 -3
BITMAP
FF00
7F80
3180
F180
7180
3180
3F80
3F00
3000
3000
3000
ENDCHAR
STARTCHAR 224
ENCODING 224
SWIDTH 720 0
DWIDTH 10 0
BBX 8 12 1 0
BITMAP
81
DB
DB
DB
DB
FF
BD
A5
99
BD
E7
C3
ENDCHAR
STARTCHAR 225
ENCODING 225
SWIDTH 720 0
DWIDTH 10 0
BBX 8 12 1 0
BITMAP
FF
FF
C7
8F
1D
3A
74
E8
D1
E3
FF
FF
ENDCHAR
STARTCHAR 226
ENCODING 226
SWIDTH 720 0
DWIDTH 10 0
BBX 9 12 0 0
BITMAP
FE00
7F00
3380
F180
7180
3180
7180
3180
3180
3380
3F00
3E00
ENDCHAR
STARTCHAR 227
ENCODING 227
SWIDTH 720 0
DWIDTH 10 0
BBX 9 12 0 0
BITMAP
FE00
7F00
5380
5180
5180
5180
5180
5180
5180
5380
7F00
FE00
ENDCHAR
STARTCHAR 228
ENCODING 228
SWIDTH 720 0
DWIDTH 10 0
BBX 0 0 0 0
BITMAP
ENDCHAR
STARTCHAR 229
ENCODING 229
SWIDTH 720 0
DWIDTH 10 0
BBX 0 0 0 0
BITMAP
ENDCHAR
STARTCHAR 230
ENCODING 230
SWIDTH 720 0
DWIDTH 10 0
BBX 0 0 0 0
BITMAP
ENDCHAR
STARTCHAR 231
ENCODING 231
SWIDTH 720 0
DWIDTH 10 0
BBX 0 0 0 0
BITMAP
ENDCHAR
STARTCHAR 232
ENCODING 232
SWIDTH 720 0
DWIDTH 10 0
BBX 0 0 0 0
BITMAP
ENDCHAR
STARTCHAR 233
ENCODING 233
SWIDTH 720 0
DWIDTH 10 0
BBX 0 0 0 0
BITMAP
ENDCHAR
STARTCHAR 234
ENCODING 234
SWIDTH 720 0
DWIDTH 10 0
BBX 0 0 0 0
BITMAP
ENDCHAR
STARTCHAR 235
ENCODING 235
SWIDTH 720 0
DWIDTH 10 0
BBX 0 0 0 0
BITMAP
ENDCHAR
STARTCHAR 236
ENCODING 236
SWIDTH 720 0
DWIDTH 10 0
BBX 0 0 0 0
BITMAP
ENDCHAR
STARTCHAR 237
ENCODING 237
SWIDTH 720 0
DWIDTH 10 0
BBX 0 0 0 0
BITMAP
ENDCHAR
STARTCHAR 238
ENCODING 238
SWIDTH 720 0
DWIDTH 10 0
BBX 0 0 0 0
BITMAP
ENDCHAR
STARTCHAR 239
ENCODING 239
SWIDTH 720 0
DWIDTH 10 0
BBX 0 0 0 0
BITMAP
ENDCHAR
STARTCHAR 240
ENCODING 240
SWIDTH 720 0
DWIDTH 10 0
BBX 0 0 0 0
BITMAP
ENDCHAR
STARTCHAR 241
ENCODING 241
SWIDTH 720 0
DWIDTH 10 0
BBX 0 0 0 0
BITMAP
ENDCHAR
STARTCHAR 242
ENCODING 242
SWIDTH 720 0
DWIDTH 10 0
BBX 0 0 0 0
BITMAP
ENDCHAR
STARTCHAR 243
ENCODING 243
SWIDTH 720 0
DWIDTH 10 0
BBX 0 0 0 0
BITMAP
ENDCHAR
STARTCHAR 244
ENCODING 244
SWIDTH 720 0
DWIDTH 10 0
BBX 0 0 0 0
BITMAP
ENDCHAR
STARTCHAR 245
ENCODING 245
SWIDTH 720 0
DWIDTH 10 0
BBX 0 0 0 0
BITMAP
ENDCHAR
STARTCHAR 246
ENCODING 246
SWIDTH 720 0
DWIDTH 10 0
BBX 0 0 0 0
BITMAP
ENDCHAR
STARTCHAR 247
ENCODING 247
SWIDTH 720 0
DWIDTH 10 0
BBX 0 0 0 0
BITMAP
ENDCHAR
STARTCHAR 248
ENCODING 248
SWIDTH 720 0
DWIDTH 10 0
BBX 0 0 0 0
BITMAP
ENDCHAR
STARTCHAR 249
ENCODING 249
SWIDTH 720 0
DWIDTH 10 0
BBX 0 0 0 0
BITMAP
ENDCHAR
STARTCHAR 250
ENCODING 250
SWIDTH 720 0
DWIDTH 10 0
BBX 0 0 0 0
BITMAP
ENDCHAR
STARTCHAR 251
ENCODING 251
SWIDTH 720 0
DWIDTH 10 0
BBX 0 0 0 0
BITMAP
ENDCHAR
STARTCHAR 252
ENCODING 252
SWIDTH 720 0
DWIDTH 10 0
BBX 0 0 0 0
BITMAP
ENDCHAR
STARTCHAR 253
ENCODING 253
SWIDTH 720 0
DWIDTH 10 0
BBX 0 0 0 0
BITMAP
ENDCHAR
STARTCHAR 254
ENCODING 254
SWIDTH 720 0
DWIDTH 10 0
BBX 0 0 0 0
BITMAP
ENDCHAR
STARTCHAR 255
ENCODING 255
SWIDTH 720 0
DWIDTH 10 0
BBX 0 0 0 0
BITMAP
ENDCHAR
ENDFONT
